<svg width="200" height="95" viewBox="0 0 200 95" fill="none" xmlns="http://www.w3.org/2000/svg">
<path d="M1.5625 32.75C0.520833 29.5 1.20833 27.875 3.625 27.875H14.8125C16.7708 27.875 18.0208 28.9375 18.5625 31.0625L28.25 67.6875C28.7917 69.7292 29.2292 71.75 29.5625 73.75C29.9375 75.75 30.1667 77.375 30.25 78.625H30.625C30.7083 77.375 30.9167 75.75 31.25 73.75C31.625 71.75 32.0833 69.7292 32.625 67.6875L42.3125 31.0625C42.8542 28.9375 44.1042 27.875 46.0625 27.875H57.25C59.6667 27.875 60.3542 29.5 59.3125 32.75L41.1875 89.3125C40.3125 92.1042 38.7917 93.5 36.625 93.5H24.25C22.0833 93.5 20.5625 92.1042 19.6875 89.3125L1.5625 32.75ZM72.625 93.5C70.125 93.5 68.875 92.25 68.875 89.75V31.625C68.875 29.125 70.125 27.875 72.625 27.875H82.625C85.125 27.875 86.375 29.125 86.375 31.625V89.75C86.375 92.25 85.125 93.5 82.625 93.5H72.625ZM72.625 18.25C70.125 18.25 68.875 17 68.875 14.5V6.5C68.875 4 70.125 2.75 72.625 2.75H82.625C85.125 2.75 86.375 4 86.375 6.5V14.5C86.375 17 85.125 18.25 82.625 18.25H72.625ZM107.125 93.5C104.625 93.5 103.375 92.25 103.375 89.75V15.9375C103.375 14.0625 103.812 12.3542 104.688 10.8125L109.5 2.375C110.417 0.791667 111.5 0 112.75 0H117.125C119.625 0 120.875 1.25 120.875 3.75V89.75C120.875 92.25 119.625 93.5 117.125 93.5H107.125ZM134.375 60.6875C134.375 50.0625 137.104 41.7292 142.562 35.6875C148.062 29.6458 156.229 26.625 167.062 26.625C177.896 26.625 186.042 29.6458 191.5 35.6875C197 41.7292 199.75 50.0625 199.75 60.6875C199.75 71.3125 197 79.6458 191.5 85.6875C186.042 91.7292 177.896 94.75 167.062 94.75C156.229 94.75 148.062 91.7292 142.562 85.6875C137.104 79.6458 134.375 71.3125 134.375 60.6875ZM152.875 60.6875C152.875 68.6042 154.083 74.2292 156.5 77.5625C158.958 80.8542 162.479 82.5 167.062 82.5C171.646 82.5 175.146 80.8542 177.562 77.5625C180.021 74.2292 181.25 68.6042 181.25 60.6875C181.25 52.7708 180.021 47.1667 177.562 43.875C175.146 40.5417 171.646 38.875 167.062 38.875C162.479 38.875 158.958 40.5417 156.5 43.875C154.083 47.1667 152.875 52.7708 152.875 60.6875Z" fill="white"/>
</svg>
